<!--?xml version="1.0" standalone="no"?-->
              <svg id="sw-js-blob-svg" viewBox="0 0 100 100" xmlns="http://www.w3.org/2000/svg" version="1.1">
                    <defs> 
                        <linearGradient id="sw-gradient" x1="0" x2="1" y1="1" y2="0">
                            <stop id="stop1" stop-color="rgba(248, 117, 55, 1)" offset="0%"></stop>
                            <stop id="stop2" stop-color="rgba(251, 168, 31, 1)" offset="100%"></stop>
                        </linearGradient>
                    </defs>
                <path fill="url(#sw-gradient)" d="M19.9,-25.2C27.4,-21.9,36.4,-18.3,38.7,-12.3C41,-6.3,36.6,2.1,33.7,10.9C30.7,19.7,29.3,29,23.9,33.5C18.5,38,9.3,37.7,1.1,36.2C-7.1,34.7,-14.2,32,-21.5,28.2C-28.9,24.3,-36.4,19.3,-39,12.4C-41.5,5.5,-39.2,-3.2,-35.2,-10.3C-31.3,-17.3,-25.8,-22.7,-19.7,-26.5C-13.6,-30.4,-6.8,-32.7,-0.3,-32.3C6.2,-31.9,12.3,-28.6,19.9,-25.2Z" width="100%" height="100%" transform="translate(50 50)" stroke-width="0" style="transition: all 0.3s ease 0s;" stroke="url(#sw-gradient)"></path>
              </svg>