<!--?xml version="1.0" standalone="no"?-->
              <svg id="sw-js-blob-svg" viewBox="0 0 100 100" xmlns="http://www.w3.org/2000/svg" version="1.1">
                    <defs> 
                        <linearGradient id="sw-gradient" x1="0" x2="1" y1="1" y2="0">
                            <stop id="stop1" stop-color="rgba(248, 117, 55, 1)" offset="0%"></stop>
                            <stop id="stop2" stop-color="rgba(251, 168, 31, 1)" offset="100%"></stop>
                        </linearGradient>
                    </defs>
                <path fill="url(#sw-gradient)" d="M16.7,-29.8C19.9,-24,19.5,-16.4,20.7,-10.4C22,-4.5,24.8,-0.3,24.4,3.6C24,7.5,20.4,11,17.9,17.6C15.4,24.3,14.2,34.1,10.5,34.5C6.9,35,0.9,26.1,-6.3,23.2C-13.6,20.3,-22.1,23.4,-28.6,21.6C-35,19.8,-39.5,13,-38.7,6.7C-37.9,0.3,-31.9,-5.8,-29,-13.8C-26.2,-21.8,-26.5,-31.8,-22.2,-37.1C-17.9,-42.4,-9,-43,-1.1,-41.3C6.8,-39.6,13.5,-35.6,16.7,-29.8Z" width="100%" height="100%" transform="translate(50 50)" stroke-width="0" style="transition: all 0.3s ease 0s;" stroke="url(#sw-gradient)"></path>
              </svg>