<!--?xml version="1.0" standalone="no"?-->
              <svg id="sw-js-blob-svg" viewBox="0 0 100 100" xmlns="http://www.w3.org/2000/svg" version="1.1">
                    <defs> 
                        <linearGradient id="sw-gradient" x1="0" x2="1" y1="1" y2="0">
                            <stop id="stop1" stop-color="rgba(65.161, 18.43, 191.321, 1)" offset="0%"></stop>
                            <stop id="stop2" stop-color="rgba(45.895, 78.857, 184.491, 0.51)" offset="100%"></stop>
                        </linearGradient>
                    </defs>
                <path fill="url(#sw-gradient)" d="M22.5,-35.2C26.4,-28.1,24.9,-17.9,28.1,-8.9C31.4,0.1,39.3,7.7,39.3,14.3C39.3,21,31.4,26.6,23.5,30.8C15.6,35,7.8,37.8,1.8,35.3C-4.2,32.8,-8.3,25,-11.5,19.3C-14.6,13.5,-16.6,9.8,-18.8,5.5C-20.9,1.3,-23.2,-3.5,-22.7,-8.2C-22.3,-12.8,-19.1,-17.4,-14.9,-24.3C-10.6,-31.3,-5.3,-40.6,2,-43.3C9.3,-46.1,18.6,-42.2,22.5,-35.2Z" width="100%" height="100%" transform="translate(50 50)" stroke-width="0" style="transition: all 0.3s ease 0s;"></path>
              </svg>